<svg version="1.1"
	 xmlns="http://www.w3.org/2000/svg" xmlns:xlink="http://www.w3.org/1999/xlink"
	 x="0px" y="0px" width="78.1px" height="78.1px" viewBox="0 0 78.1 78.1" enable-background="new 0 0 78.1 78.1"
	 xml:space="preserve">
<defs>
</defs>
<g>
	<g>
		<path fill="#28BBB2" d="M76.8,37.8h-2.6C73.5,19.4,58.7,4.6,40.4,3.9V1.3c0-0.7-0.6-1.3-1.3-1.3s-1.3,0.6-1.3,1.3v2.6
			C19.4,4.6,4.6,19.4,3.9,37.8H1.3c-0.7,0-1.3,0.6-1.3,1.3s0.6,1.3,1.3,1.3h2.6c0.7,18.3,15.5,33.1,33.8,33.8v2.6
			c0,0.7,0.6,1.3,1.3,1.3s1.3-0.6,1.3-1.3v-2.6c18.3-0.7,33.1-15.5,33.8-33.8h2.6c0.7,0,1.3-0.6,1.3-1.3S77.5,37.8,76.8,37.8z
			 M40.4,71.6V69c0-0.7-0.6-1.3-1.3-1.3s-1.3,0.6-1.3,1.3v2.6C20.8,70.9,7.2,57.3,6.5,40.4h2.6c0.7,0,1.3-0.6,1.3-1.3
			s-0.6-1.3-1.3-1.3H6.5C7.2,20.8,20.8,7.2,37.8,6.5v2.6c0,0.7,0.6,1.3,1.3,1.3s1.3-0.6,1.3-1.3V6.5c16.9,0.7,30.5,14.3,31.2,31.2
			H69c-0.7,0-1.3,0.6-1.3,1.3s0.6,1.3,1.3,1.3h2.6C70.9,57.3,57.3,70.9,40.4,71.6z"/>
		<path fill="#28BBB2" d="M57.2,48l-6.9-3c-0.2-0.1-0.3-0.3-0.5-0.5l4.6,0c0.1,0,2,0.2,3.5-0.5c0.6-0.2,1-0.7,1.2-1.4
			c0.2-0.6,0.1-1.3-0.3-1.8c-1.3-1.9-4.4-6.8-4.5-11.8c0-0.1-0.3-8.6-8.7-8.6c-1.2,0-2.4,0.2-3.4,0.6c-0.2-0.6-0.6-1.2-1.1-1.7
			c-1.5-1.7-3.8-2.5-7-2.5s-5.6,0.8-7,2.5c-1.7,1.9-1.5,4.2-1.5,4.6v3.8c-0.5,0.5-0.7,1.2-0.7,1.9v2.8c0,0.9,0.4,1.7,1.1,2.2
			c0.7,2.6,2,4.5,2.5,5.1V42c0,0.7-0.4,1.3-1,1.6l-6.3,3.5c-2.1,1.1-3.3,3.3-3.3,5.6v3H49h1.4h9.9v-2.6C60.4,50.9,59.1,49,57.2,48z
			 M49,54.3H19.2v-1.6c0-1.8,1-3.5,2.6-4.4l6.3-3.5c1.1-0.6,1.7-1.7,1.7-2.9v-2.9L29.7,39c0,0-1.8-2.1-2.4-5l-0.1-0.3l-0.2-0.2
			c-0.4-0.3-0.7-0.7-0.7-1.2v-2.8c0-0.4,0.2-0.8,0.5-1l0.2-0.2v-4.4l0-0.1c0,0-0.2-2,1.1-3.6c1.2-1.3,3.2-2,6-2c2.8,0,4.8,0.7,6,2
			c0.6,0.7,0.9,1.4,1,2c0,0,0,0.1,0,0.1c0,0.1,0,0.1,0,0.1c0,0.1,0,0.1,0,0.2c0,0,0,0.1,0,0.1c0,0.1,0,0.2,0,0.3c0,0,0,0,0,0
			c0,0.1,0,0.1,0,0.2c0,0,0,0,0,0c0,0.1,0,0.1,0,0.2c0,0,0,0,0,0c0,0.2,0,0.3,0,0.3l0,4.5l0.2,0.2c0.3,0.3,0.5,0.6,0.5,1v2.8
			c0,0.6-0.4,1.2-1,1.3l-0.4,0.1l-0.1,0.4c-0.5,1.5-1.2,2.8-2,4.1c-0.2,0.3-0.4,0.6-0.6,0.8l-0.2,0.2v2.9c0,0.2,0,0.4,0,0.5
			c0,0,0,0.1,0,0.1c0,0.1,0.1,0.3,0.1,0.4c0,0,0,0.1,0,0.1c0.1,0.1,0.1,0.3,0.2,0.4c0,0,0,0,0,0c0.1,0.2,0.2,0.4,0.4,0.5l0.2,0.2h0
			c0.2,0.2,0.5,0.4,0.8,0.6l6.8,3.4c1.7,0.8,2.8,2.6,2.8,4.5V54.3z M58.9,54.3h-8.5v-1.5c0-2.4-1.4-4.6-3.5-5.7L42,44.7
			c0.1-0.3,0.1-0.6,0-0.9c-0.2-0.5-0.6-0.8-1.2-0.8h-1.6c0-0.1-0.1-0.1-0.1-0.2c0-0.1-0.1-0.2-0.1-0.2c0-0.2-0.1-0.3-0.1-0.5v-2.4
			c0.2-0.2,0.3-0.4,0.5-0.7c0.9-1.2,1.6-2.6,2.1-4.1c1-0.5,1.7-1.5,1.7-2.6v-2.8c0-0.7-0.3-1.3-0.7-1.9v-3.8c0-0.2,0.1-0.8-0.1-1.5
			c0.9-0.4,1.9-0.5,3-0.6c7,0.1,7.2,7,7.3,7.3c0.1,5.4,3.4,10.6,4.8,12.6c0.1,0.2,0.2,0.4,0.1,0.6c0,0.1-0.1,0.3-0.4,0.4
			c-1.2,0.5-2.8,0.4-2.9,0.4h-4.9c-0.5,0-0.9,0.2-1.1,0.6c-0.2,0.4-0.3,0.9-0.1,1.3c0.2,0.4,0.6,1,1.3,1.4l6.9,3
			c1.5,0.7,2.4,2.2,2.4,3.9V54.3z"/>
	</g>
</g>
</svg>
