<svg version="1.1"
	 xmlns="http://www.w3.org/2000/svg" xmlns:xlink="http://www.w3.org/1999/xlink"
	 x="0px" y="0px" width="75.8px" height="57.7px" viewBox="0 0 75.8 57.7" enable-background="new 0 0 75.8 57.7"
	 xml:space="preserve">
<defs>
</defs>
<g>
	<g>
		<g>
			<path fill="#28BBB2" d="M62.8,0H1C0.5,0,0,0.5,0,1v55.7c0,0.6,0.5,1,1,1h61.8c0.6,0,1-0.5,1-1V45.8c0-0.6-0.5-1-1-1
				c-0.6,0-1,0.5-1,1v9.8H2V10.2h59.7v31.6c0,0.6,0.5,1,1,1c0.6,0,1-0.5,1-1V1C63.8,0.5,63.4,0,62.8,0z M2,2h37.7v6.1H2V2z
				 M41.8,8.1V2h20v6.1H41.8z"/>
			<path fill="#28BBB2" d="M51.8,4c-0.6,0-1.1,0.5-1.1,1.1c0,0.6,0.5,1.1,1.1,1.1c0.6,0,1.1-0.5,1.1-1.1S52.4,4,51.8,4z"/>
			<path fill="#28BBB2" d="M46.2,4c-0.6,0-1.1,0.5-1.1,1.1c0,0.6,0.5,1.1,1.1,1.1c0.6,0,1.1-0.5,1.1-1.1S46.8,4,46.2,4z"/>
			<path fill="#28BBB2" d="M57.4,4c-0.6,0-1.1,0.5-1.1,1.1c0,0.6,0.5,1.1,1.1,1.1s1.1-0.5,1.1-1.1S58,4,57.4,4z"/>
			<path fill="#28BBB2" d="M42.7,41.9c-0.6,0-1,0.5-1,1v7.4c0,0.6,0.5,1,1,1h13.7c0.6,0,1-0.5,1-1v-7.4c0-0.6-0.5-1-1-1h-6.2v-6.1
				c0-0.6-0.5-1-1-1H36c-0.6,0-1,0.5-1,1c0,0.6,0.5,1,1,1h12.2v5H42.7z M55.4,49.3H43.7v-5.4h11.7V49.3z"/>
			<path fill="#28BBB2" d="M41.8,20.1c0-0.6-0.5-1-1-1H23c-0.6,0-1,0.5-1,1s0.5,1,1,1h17.8C41.4,21.1,41.8,20.7,41.8,20.1z"/>
			<path fill="#28BBB2" d="M38.1,24.2c0-0.6-0.5-1-1-1H26.8c-0.6,0-1,0.5-1,1s0.5,1,1,1h10.3C37.6,25.2,38.1,24.7,38.1,24.2z"/>
			<path fill="#28BBB2" d="M25,41.9c-0.6,0-1,0.5-1,1v7.4c0,0.6,0.5,1,1,1h13.7c0.6,0,1-0.5,1-1v-7.4c0-0.6-0.5-1-1-1h-5.8V29.8
				h12.4c0.6,0,1-0.5,1-1V15.5c0-0.6-0.5-1-1-1H18.5c-0.6,0-1,0.5-1,1v13.2c0,0.6,0.5,1,1,1h12.4v5H14.6c-0.6,0-1,0.5-1,1v6.1H7.4
				c-0.6,0-1,0.5-1,1v7.4c0,0.6,0.5,1,1,1h13.7c0.6,0,1-0.5,1-1v-7.4c0-0.6-0.5-1-1-1h-5.5v-5h15.3v5H25z M19.5,16.6h24.8v11.2H19.5
				V16.6z M20.1,49.3H8.4v-5.4h11.7V49.3z M37.8,49.3H26.1v-5.4h11.7V49.3z"/>
		</g>
		<polygon fill="#FFFFFF" points="50.2,28.6 50.9,34.1 69.8,56.4 74.5,52.6 55.5,30.1 		"/>
		<path fill="#28BBB2" d="M72.3,48.1L56.1,29.2c-0.1-0.2-0.3-0.3-0.5-0.3l-5.7-2c-0.4-0.1-0.8-0.1-1.1,0.2c-0.2,0.2-0.4,0.5-0.4,0.8
			c0,0.1,0,0.2,0,0.3l1,5.9c0,0.2,0.1,0.4,0.2,0.5l16.1,18.9l0,0c0,0,0,0,0,0l3.3,3.8c0.4,0.5,1.1,0.5,1.6,0.1l4.6-4
			c0.2-0.2,0.4-0.5,0.4-0.8c0-0.3-0.1-0.6-0.3-0.8L72.3,48.1C72.3,48.1,72.3,48.1,72.3,48.1L72.3,48.1z M51.7,33.4L51,29.6l3.6,1.3
			l15.2,17.9l-2.9,2.5L51.7,33.4z M73.1,52.6l-2.9,2.5l-1.8-2.1l2.9-2.5L73.1,52.6z"/>
	</g>
</g>
</svg>
