<svg version="1.1"
	 xmlns="http://www.w3.org/2000/svg" xmlns:xlink="http://www.w3.org/1999/xlink"
	 x="0px" y="0px" width="76.3px" height="71.2px" viewBox="0 0 76.3 71.2" enable-background="new 0 0 76.3 71.2"
	 xml:space="preserve">
<defs>
</defs>
<g>
	<g>
		<g>
			<path fill="#28BBB2" d="M72.5,34.4v-28c0-3.5-2.9-6.4-6.4-6.4h-56C6.7,0,3.8,2.9,3.8,6.4v19.1c-2.1,0-3.8,1.7-3.8,3.8v38.2
				c0,2.1,1.7,3.8,3.8,3.8h28c2.1,0,3.8-1.7,3.8-3.8h10.7c1.2,0,2.3-0.5,3-1.5c0.7-1,1-2.2,0.6-3.3l-2.5-9.2h7.2v14
				c0,2.1,1.7,3.8,3.8,3.8h14c2.1,0,3.8-1.7,3.8-3.8V38.2C76.3,36.1,74.6,34.4,72.5,34.4z M33.1,67.4c0,0.7-0.6,1.3-1.3,1.3h-28
				c-0.7,0-1.3-0.6-1.3-1.3v-2.5h30.5V67.4z M33.1,62.3H2.5v-28h30.5V62.3z M33.1,31.8H2.5v-2.5c0-0.7,0.6-1.3,1.3-1.3h28
				c0.7,0,1.3,0.6,1.3,1.3V31.8z M47.5,63.3c0.1,0.4,0,0.8-0.2,1.1c-0.2,0.3-0.6,0.5-1,0.5H35.6v-2.5h11.6L47.5,63.3z M35.6,59.8
				v-6.4h9.2l1.7,6.4H35.6z M54.7,50.9H35.6v-7.6h19.1V50.9z M54.7,38.2v2.5H35.6V29.3c0-2.1-1.7-3.8-3.8-3.8H6.4V6.4
				c0-2.1,1.7-3.8,3.8-3.8h56c2.1,0,3.8,1.7,3.8,3.8v28H58.5C56.4,34.4,54.7,36.1,54.7,38.2z M73.8,67.4c0,0.7-0.6,1.3-1.3,1.3h-14
				c-0.7,0-1.3-0.6-1.3-1.3v-2.5h16.5V67.4z M73.8,62.3H57.3V43.3h16.5V62.3z M73.8,40.7H57.3v-2.5c0-0.7,0.6-1.3,1.3-1.3h14
				c0.7,0,1.3,0.6,1.3,1.3V40.7z"/>
		</g>
	</g>
	<g>
		<g>
			
				<rect x="59.8" y="49" transform="matrix(-0.7071 0.7071 -0.7071 -0.7071 145.2176 40.365)" fill="#28BBB2" width="9" height="2.5"/>
		</g>
	</g>
	<g>
		<g>
			
				<rect x="62.3" y="54.1" transform="matrix(-0.7071 0.7071 -0.7071 -0.7071 153.1633 47.2631)" fill="#28BBB2" width="9" height="2.5"/>
		</g>
	</g>
	<g>
		<g>
			
				<rect x="32.8" y="17.8" transform="matrix(-0.7071 0.7071 -0.7071 -0.7071 78.652 5.5918)" fill="#28BBB2" width="10.8" height="2.5"/>
		</g>
	</g>
	<g>
		<g>
			
				<rect x="44.2" y="15.3" transform="matrix(-0.7071 0.7071 -0.7071 -0.7071 96.4018 -6.8498)" fill="#28BBB2" width="10.8" height="2.5"/>
		</g>
	</g>
	<g>
		<g>
			
				<rect x="37.1" y="24.2" transform="matrix(-0.7071 0.7071 -0.7071 -0.7071 87.4952 14.6544)" fill="#28BBB2" width="7.2" height="2.5"/>
		</g>
	</g>
	<g>
		<g>
			
				<rect x="43.5" y="8.9" transform="matrix(-0.7071 0.7071 -0.7071 -0.7071 87.5635 -15.8928)" fill="#28BBB2" width="7.2" height="2.5"/>
		</g>
	</g>
	<g>
		<g>
			<rect x="8.9" y="5.1" fill="#28BBB2" width="2.5" height="2.5"/>
		</g>
	</g>
	<g>
		<g>
			<rect x="14" y="5.1" fill="#28BBB2" width="2.5" height="2.5"/>
		</g>
	</g>
	<g>
		<g>
			<rect x="19.1" y="5.1" fill="#28BBB2" width="2.5" height="2.5"/>
		</g>
	</g>
	<path fill="#28BBB2" d="M14.9,49.1l-2.3,2.2c-1.5,0-3.6,0.5-4.5,3.4c-0.7,1.6-2.5,1.5-2.5,1.5c3.8,4.2,8.2,1.8,9.2,0.8
		c0.9-0.9,1-2,0.9-2.9l2.1-2.1L14.9,49.1z M13.9,56.1c-0.7,0.7-2.5,1.1-2.9-0.7c0,0-2.8,0.7-1.3-0.9c0.9-2.4,3.7-1.8,3.7-1.8l1,1
		C14.4,53.6,15.1,54.9,13.9,56.1z M27.9,39.2c-0.8-0.8-2.2-0.8-3,0l-9,8.9l3,3l9-8.9C28.8,41.4,28.8,40.1,27.9,39.2z"/>
</g>
</svg>
