<svg version="1.1"
	 xmlns="http://www.w3.org/2000/svg" xmlns:xlink="http://www.w3.org/1999/xlink"
	 x="0px" y="0px" width="106.1px" height="106.1px" viewBox="0 0 106.1 106.1" enable-background="new 0 0 106.1 106.1"
	 xml:space="preserve">
<defs>
</defs>
<g>
	<path fill="#eeeeee" d="M53,0C39.4,0,25.9,5.2,15.5,15.5c-20.7,20.7-20.7,54.3,0,75c10.3,10.3,23.9,15.5,37.5,15.5s27.2-5.2,37.5-15.5
		c20.7-20.7,20.7-54.3,0-75C80.2,5.2,66.6,0,53,0z M84.8,84.8C76,93.5,64.5,97.9,53,97.9c-11.5,0-23-4.4-31.7-13.1
		c-2.2-2.2-4.1-4.5-5.7-7C4.1,60.3,6,36.6,21.3,21.3C30,12.6,41.5,8.2,53,8.2s23,4.4,31.7,13.1C102.3,38.8,102.3,67.3,84.8,84.8z
		 M24.7,52.3c-1.2-1.1-1.3-3-0.1-4.2c1.1-1.2,3-1.3,4.2-0.1c3.3,3.1,6.6,0.2,7-0.1c1.1-1,2.7-1,3.9-0.1c0.1,0.1,0.3,0.2,0.4,0.4
		c1.1,1.2,1,3.1-0.2,4.2C37.1,54.7,30.6,57.8,24.7,52.3z M81.5,48c1.1,1.2,1,3.1-0.2,4.2c-2.7,2.4-9.2,5.5-15.1,0
		c-1.2-1.1-1.3-3-0.1-4.2s3-1.3,4.2-0.1c3.3,3.1,6.6,0.2,7-0.1c1.1-1,2.7-1,3.9-0.1C81.3,47.8,81.4,47.9,81.5,48z M77,79.3
		c0.7,1.5,0,3.3-1.6,3.9c-1.5,0.7-3.3,0-3.9-1.6c-2.9-6.7-9.7-11-17.4-11c-7.9,0-14.7,4.3-17.5,11c-0.5,1.2-1.6,1.8-2.8,1.8
		c-0.4,0-0.8-0.1-1.1-0.2c-1.5-0.6-2.3-2.4-1.6-3.9c3.7-8.9,12.8-14.7,23.1-14.7C64.2,64.7,73.2,70.4,77,79.3z"/>
</g>
</svg>
