<svg version="1.1"
	 xmlns="http://www.w3.org/2000/svg" xmlns:xlink="http://www.w3.org/1999/xlink"
	 x="0px" y="0px" width="540px" height="449.2px" viewBox="0 0 540 449.2" enable-background="new 0 0 540 449.2"
	 xml:space="preserve">
<defs>
</defs>
<path fill="#E64345" d="M531.4,52.3c-12,5.3-24.5,9.5-37.2,12.6c14.1-13.4,24.7-30.1,30.6-48.8l0,0c1.7-5.3-4.1-9.9-8.9-7.1l0,0
	C498.1,19.5,479,27.4,459,32.4c-1.2,0.3-2.4,0.4-3.6,0.4c-3.6,0-7.2-1.4-10-3.8C424.2,10.3,396.8,0,368.4,0
	c-12.3,0-24.7,1.9-36.9,5.7c-37.7,11.7-66.9,42.8-76,81.3c-3.4,14.4-4.4,28.8-2.8,42.9c0.2,1.6-0.6,2.7-1,3.3
	c-0.8,0.9-2,1.5-3.2,1.5c-0.1,0-0.3,0-0.4,0C165.5,126.9,91,87,38.3,22.4l0,0c-2.7-3.3-7.8-2.9-10,0.8l0,0
	C18,40.9,12.6,61.1,12.6,81.7c0,31.6,12.7,61.3,34.7,83c-9.3-2.2-18.2-5.7-26.6-10.3l0,0c-4-2.2-9,0.6-9,5.2l0,0
	c-0.6,46.9,26.9,88.6,68,107.4c-0.8,0-1.7,0-2.5,0c-6.5,0-13.1-0.6-19.6-1.9l0,0c-4.5-0.9-8.3,3.4-6.9,7.8l0,0
	c13.3,41.7,49.2,72.4,92.2,79.4C107.1,376.4,65.7,389,22.5,389L9,389c-4.1,0-7.7,2.7-8.7,6.7c-1,4,0.9,8.1,4.4,10.2
	c48.7,28.3,104.2,43.3,160.6,43.3c49.4,0,95.5-9.8,137.2-29.1c38.2-17.7,72-43,100.4-75.2c26.5-30,47.1-64.6,61.5-103
	c13.7-36.5,20.9-75.5,20.9-112.7v-1.8c0-6,2.7-11.6,7.4-15.4c17.9-14.5,33.5-31.6,46.3-50.8l0,0C542.3,56.1,537,49.8,531.4,52.3
	L531.4,52.3z"/>
</svg>
